<svg width="25" height="26" viewBox="0 0 25 26" fill="none" xmlns="http://www.w3.org/2000/svg">
<path d="M12.5 0.586914C5.59436 0.586914 0 6.18208 0 13.0869C0 19.9918 5.59516 25.5869 12.5 25.5869C19.4056 25.5869 25 19.9918 25 13.0869C25 6.18208 19.4048 0.586914 12.5 0.586914ZM18.6395 9.15062L16.5879 18.8184C16.4363 19.5039 16.0282 19.67 15.4589 19.3474L12.3339 17.0442L10.8266 18.4958C10.6605 18.6619 10.5194 18.803 10.1968 18.803L10.4185 15.6224L16.2097 10.3901C16.4621 10.1684 16.154 10.0426 15.821 10.2643L8.66371 14.77L5.57903 13.8071C4.90887 13.5958 4.89355 13.1369 5.72016 12.8143L17.7718 8.16675C18.3315 7.96514 18.8202 8.30304 18.6387 9.14982L18.6395 9.15062Z" fill="black"/>
</svg>
